# xmcd
#
# Track frame offsets: 
#        150
#        24205
#        53691
#        77503
#        102316
#        125113
#        152293
#        183445
#        210238
#        235936
#
# Disc length: 3486 seconds
#
# Revision: 1
# Processed by: cddbd v1.5.2PL0 Copyright (c) Steve Scherf et al.
# Submitted via: ExactAudioCopy v1.0b3
#
DISCID=6e0d9c0a
DTITLE=Tam Doan - Tha Giet Nguoi Yeu
DYEAR=2011
DGENRE=
TTITLE0=Nho nhau trong doi
TTITLE1=Truong Vu - Tha giet nguoi yeu
TTITLE2=Ma hong Da Lat
TTITLE3=Quoc Dung (Duy Truong) - Mua rung
TTITLE4=Tinh
TTITLE5=Tam Doan, Truong Vu - Chon vui tam su
TTITLE6=Khung troi thuong nho
TTITLE7=Quoc Dung (Duy Truong) - Chung minh ba dua
TTITLE8=Tua canh beo troi
TTITLE9=Tren dong song nho
EXTD=
EXTT0=
EXTT1=
EXTT2=
EXTT3=
EXTT4=
EXTT5=
EXTT6=
EXTT7=
EXTT8=
EXTT9=
PLAYORDER=
